{
  "accessors": [
    {
      "bufferView": 2,
      "componentType": 5126,
      "count": 5114,
      "max": [
        6.249999046325684,
        1.0133333206176758,
        1.0000038146972656
      ],
      "min": [
        -6.249999046325684,
        -0.9866666793823242,
        -0.9999961853027344
      ],
      "type": "VEC3"
    },
    {
      "bufferView": 2,
      "byteOffset": 61368,
      "componentType": 5126,
      "count": 5114,
      "max": [
        1.0,
        1.0,
        1.0
      ],
      "min": [
        -1.0,
        -1.0,
        -1.0
      ],
      "type": "VEC3"
    },
    {
      "bufferView": 3,
      "componentType": 5126,
      "count": 5114,
      "max": [
        1.0,
        1.0,
        1.0,
        1.0
      ],
      "min": [
        -0.9701693654060364,
        -1.0,
        -1.0,
        -1.0
      ],
      "type": "VEC4"
    },
    {
      "bufferView": 1,
      "componentType": 5126,
      "count": 5114,
      "max": [
        0.9736300706863403,
        0.8431283235549927
      ],
      "min": [
        0.010213274508714676,
        0.009734153747558594
      ],
      "type": "VEC2"
    },
    {
      "bufferView": 1,
      "byteOffset": 40912,
      "componentType": 5126,
      "count": 5114,
      "max": [
        0.9736300706863403,
        0.8431283235549927
      ],
      "min": [
        0.010213274508714676,
        0.009734153747558594
      ],
      "type": "VEC2"
    },
    {
      "bufferView": 1,
      "byteOffset": 81824,
      "componentType": 5126,
      "count": 5114,
      "max": [
        0.9736300706863403,
        0.8431283235549927
      ],
      "min": [
        0.010213274508714676,
        0.009734153747558594
      ],
      "type": "VEC2"
    },
    {
      "bufferView": 1,
      "byteOffset": 122736,
      "componentType": 5126,
      "count": 5114,
      "max": [
        0.9736300706863403,
        0.8431283235549927
      ],
      "min": [
        0.010213274508714676,
        0.009734153747558594
      ],
      "type": "VEC2"
    },
    {
      "bufferView": 0,
      "componentType": 5125,
      "count": 7680,
      "type": "SCALAR"
    },
    {
      "bufferView": 2,
      "byteOffset": 122736,
      "componentType": 5126,
      "count": 600,
      "max": [
        5.8000006675720215,
        1.0,
        1.0
      ],
      "min": [
        -5.799999713897705,
        -1.0000019073486328,
        -1.0
      ],
      "type": "VEC3"
    },
    {
      "bufferView": 2,
      "byteOffset": 129936,
      "componentType": 5126,
      "count": 600,
      "max": [
        1.0,
        1.0,
        1.0
      ],
      "min": [
        -1.0,
        -1.0,
        -1.0
      ],
      "type": "VEC3"
    },
    {
      "bufferView": 3,
      "byteOffset": 81824,
      "componentType": 5126,
      "count": 600,
      "max": [
        1.0,
        1.0,
        1.5277107703881576e-11,
        1.0
      ],
      "min": [
        -1.0,
        -1.0,
        -6.963980607455067e-12,
        1.0
      ],
      "type": "VEC4"
    },
    {
      "bufferView": 1,
      "byteOffset": 163648,
      "componentType": 5126,
      "count": 600,
      "max": [
        0.8702161312103271,
        0.9902657270431519
      ],
      "min": [
        0.009734392166137695,
        0.5697591304779053
      ],
      "type": "VEC2"
    },
    {
      "bufferView": 1,
      "byteOffset": 168448,
      "componentType": 5126,
      "count": 600,
      "max": [
        0.8702161312103271,
        0.9902657270431519
      ],
      "min": [
        0.009734392166137695,
        0.5697591304779053
      ],
      "type": "VEC2"
    },
    {
      "bufferView": 1,
      "byteOffset": 173248,
      "componentType": 5126,
      "count": 600,
      "max": [
        0.8702161312103271,
        0.9902657270431519
      ],
      "min": [
        0.009734392166137695,
        0.5697591304779053
      ],
      "type": "VEC2"
    },
    {
      "bufferView": 1,
      "byteOffset": 178048,
      "componentType": 5126,
      "count": 600,
      "max": [
        0.8702161312103271,
        0.9902657270431519
      ],
      "min": [
        0.009734392166137695,
        0.5697591304779053
      ],
      "type": "VEC2"
    },
    {
      "bufferView": 0,
      "byteOffset": 30720,
      "componentType": 5125,
      "count": 1140,
      "type": "SCALAR"
    },
    {
      "bufferView": 2,
      "byteOffset": 137136,
      "componentType": 5126,
      "count": 5114,
      "max": [
        6.249999046325684,
        1.0133333206176758,
        1.0000038146972656
      ],
      "min": [
        -6.249999046325684,
        -0.9866666793823242,
        -0.9999961853027344
      ],
      "type": "VEC3"
    },
    {
      "bufferView": 2,
      "byteOffset": 198504,
      "componentType": 5126,
      "count": 5114,
      "max": [
        1.0,
        1.0,
        1.0
      ],
      "min": [
        -1.0,
        -1.0,
        -1.0
      ],
      "type": "VEC3"
    },
    {
      "bufferView": 3,
      "byteOffset": 91424,
      "componentType": 5126,
      "count": 5114,
      "max": [
        1.0,
        1.0,
        1.0,
        1.0
      ],
      "min": [
        -0.9701693654060364,
        -1.0,
        -1.0,
        -1.0
      ],
      "type": "VEC4"
    },
    {
      "bufferView": 1,
      "byteOffset": 182848,
      "componentType": 5126,
      "count": 5114,
      "max": [
        0.9736300706863403,
        0.8431283235549927
      ],
      "min": [
        0.010213274508714676,
        0.009734153747558594
      ],
      "type": "VEC2"
    },
    {
      "bufferView": 1,
      "byteOffset": 223760,
      "componentType": 5126,
      "count": 5114,
      "max": [
        0.9736300706863403,
        0.8431283235549927
      ],
      "min": [
        0.010213274508714676,
        0.009734153747558594
      ],
      "type": "VEC2"
    },
    {
      "bufferView": 1,
      "byteOffset": 264672,
      "componentType": 5126,
      "count": 5114,
      "max": [
        0.9736300706863403,
        0.8431283235549927
      ],
      "min": [
        0.010213274508714676,
        0.009734153747558594
      ],
      "type": "VEC2"
    },
    {
      "bufferView": 1,
      "byteOffset": 305584,
      "componentType": 5126,
      "count": 5114,
      "max": [
        0.9736300706863403,
        0.8431283235549927
      ],
      "min": [
        0.010213274508714676,
        0.009734153747558594
      ],
      "type": "VEC2"
    },
    {
      "bufferView": 0,
      "byteOffset": 35280,
      "componentType": 5125,
      "count": 7680,
      "type": "SCALAR"
    }
  ],
  "asset": {
    "extras": {
      "author": "JungleBird (https://sketchfab.com/junglebird)",
      "license": "CC-BY-4.0 (http://creativecommons.org/licenses/by/4.0/)",
      "source": "https://sketchfab.com/3d-models/bench-a2f11e183cf448ab858166f7c8b61ba0",
      "title": "Bench"
    },
    "generator": "Sketchfab-16.16.0",
    "version": "2.0"
  },
  "bufferViews": [
    {
      "buffer": 0,
      "byteLength": 66000,
      "name": "floatBufferViews",
      "target": 34963
    },
    {
      "buffer": 0,
      "byteLength": 346496,
      "byteOffset": 66000,
      "byteStride": 8,
      "name": "floatBufferViews",
      "target": 34962
    },
    {
      "buffer": 0,
      "byteLength": 259872,
      "byteOffset": 412496,
      "byteStride": 12,
      "name": "floatBufferViews",
      "target": 34962
    },
    {
      "buffer": 0,
      "byteLength": 173248,
      "byteOffset": 672368,
      "byteStride": 16,
      "name": "floatBufferViews",
      "target": 34962
    }
  ],
  "buffers": [
    {
      "byteLength": 845616,
      "uri": "scene.bin"
    }
  ],
  "extensionsUsed": [
    "KHR_materials_specular"
  ],
  "images": [
    {
      "uri": "textures/bench_baseColor.png"
    },
    {
      "uri": "textures/bench_metallicRoughness.png"
    },
    {
      "uri": "textures/bench_normal.png"
    }
  ],
  "materials": [
    {
      "doubleSided": true,
      "extensions": {
        "KHR_materials_specular": {
          "specularColorFactor": [
            1.0,
            1.0,
            1.0
          ],
          "specularFactor": 0.6262876229718033
        }
      },
      "name": "bench",
      "normalTexture": {
        "index": 2
      },
      "pbrMetallicRoughness": {
        "baseColorTexture": {
          "index": 0
        },
        "metallicRoughnessTexture": {
          "index": 1
        },
        "roughnessFactor": 0.851812119808365
      }
    }
  ],
  "meshes": [
    {
      "name": "Object_0",
      "primitives": [
        {
          "attributes": {
            "NORMAL": 1,
            "POSITION": 0,
            "TANGENT": 2,
            "TEXCOORD_0": 3,
            "TEXCOORD_1": 4,
            "TEXCOORD_2": 5,
            "TEXCOORD_3": 6
          },
          "indices": 7,
          "material": 0,
          "mode": 4
        }
      ]
    },
    {
      "name": "Object_1",
      "primitives": [
        {
          "attributes": {
            "NORMAL": 9,
            "POSITION": 8,
            "TANGENT": 10,
            "TEXCOORD_0": 11,
            "TEXCOORD_1": 12,
            "TEXCOORD_2": 13,
            "TEXCOORD_3": 14
          },
          "indices": 15,
          "material": 0,
          "mode": 4
        }
      ]
    },
    {
      "name": "Object_2",
      "primitives": [
        {
          "attributes": {
            "NORMAL": 17,
            "POSITION": 16,
            "TANGENT": 18,
            "TEXCOORD_0": 19,
            "TEXCOORD_1": 20,
            "TEXCOORD_2": 21,
            "TEXCOORD_3": 22
          },
          "indices": 23,
          "material": 0,
          "mode": 4
        }
      ]
    }
  ],
  "nodes": [
    {
      "children": [
        1
      ],
      "matrix": [
        1.0,
        0.0,
        0.0,
        0.0,
        0.0,
        2.220446049250313e-16,
        -1.0,
        0.0,
        0.0,
        1.0,
        2.220446049250313e-16,
        0.0,
        0.0,
        0.0,
        0.0,
        1.0
      ],
      "name": "Sketchfab_model"
    },
    {
      "children": [
        2
      ],
      "name": "root"
    },
    {
      "children": [
        3,
        5,
        7
      ],
      "matrix": [
        1.0,
        0.0,
        0.0,
        0.0,
        0.0,
        2.220446049250313e-16,
        1.0,
        0.0,
        0.0,
        -1.0,
        2.220446049250313e-16,
        0.0,
        0.0,
        0.0,
        0.0,
        1.0
      ],
      "name": "GLTF_SceneRootNode"
    },
    {
      "children": [
        4
      ],
      "matrix": [
        0.03999999910593033,
        0.0,
        0.0,
        0.0,
        0.0,
        0.25,
        0.0,
        0.0,
        0.0,
        0.0,
        0.03999999910593033,
        0.0,
        0.0,
        0.0,
        -0.6100001931190491,
        1.0
      ],
      "name": "Cube_0"
    },
    {
      "mesh": 0,
      "name": "Object_4"
    },
    {
      "children": [
        6
      ],
      "matrix": [
        -0.03999999910593033,
        -0.0,
        -0.0,
        -0.0,
        0.0,
        0.03999999910593033,
        0.0,
        0.0,
        0.0,
        0.0,
        0.5699999928474426,
        0.0,
        0.0,
        0.20999999344348907,
        0.0,
        1.0
      ],
      "name": "Cube.002_1"
    },
    {
      "mesh": 1,
      "name": "Object_6"
    },
    {
      "children": [
        8
      ],
      "matrix": [
        0.03999999910593033,
        0.0,
        0.0,
        0.0,
        0.0,
        0.25,
        0.0,
        0.0,
        0.0,
        0.0,
        0.03999999910593033,
        0.0,
        0.0,
        0.0,
        0.6100000143051147,
        1.0
      ],
      "name": "Cube.001_2"
    },
    {
      "mesh": 2,
      "name": "Object_8"
    }
  ],
  "samplers": [
    {
      "magFilter": 9729,
      "minFilter": 9987,
      "wrapS": 10497,
      "wrapT": 10497
    }
  ],
  "scene": 0,
  "scenes": [
    {
      "name": "Sketchfab_Scene",
      "nodes": [
        0
      ]
    }
  ],
  "textures": [
    {
      "sampler": 0,
      "source": 0
    },
    {
      "sampler": 0,
      "source": 1
    },
    {
      "sampler": 0,
      "source": 2
    }
  ]
}
